<?xml version="1.0" encoding="UTF-8"?>
<svg xmlns="http://www.w3.org/2000/svg" width="128" height="128" viewBox="0 0 128 128">
  <defs>
    <linearGradient id="g1" x1="0%" x2="100%" y1="0%" y2="100%">
      <stop offset="0%" stop-color="#4f46e5"/>
      <stop offset="100%" stop-color="#06b6d4"/>
    </linearGradient>
    <linearGradient id="g2" x1="0%" x2="100%" y1="0%" y2="100%">
      <stop offset="0%" stop-color="#d946ef"/>
      <stop offset="100%" stop-color="#06b6d4"/>
    </linearGradient>
  </defs>

  <rect width="128" height="128" rx="20" fill="url(#g1)"/>

  <!-- optic fiber wave -->
  <g transform="translate(10,40)">
    <path d="M0 24 C16 0, 40 48, 56 24 C72 0, 96 48, 112 24" fill="none" stroke="white" stroke-width="6" stroke-linecap="round" stroke-linejoin="round" opacity="0.95"/>
    <path d="M0 24 C16 8, 40 40, 56 24 C72 8, 96 40, 112 24" fill="none" stroke="url(#g2)" stroke-width="4" stroke-linecap="round" stroke-linejoin="round" opacity="0.95"/>
  </g>

  <!-- central hexagon -->
  <g transform="translate(34,14)">
    <polygon points="30,6 52,18 52,42 30,54 8,42 8,18" fill="#ffffff" opacity="0.14"/>
    <polygon points="30,10 50,20 50,40 30,50 10,40 10,20" fill="#ffffff" opacity="0.06"/>
    <circle cx="30" cy="30" r="8" fill="white" opacity="0.9" />
  </g>
</svg>
